<mxfile host="65bd71144e">
    <diagram id="n9vhno1qFf0XFuCSfTiH" name="Fuyu">
        <mxGraphModel dx="0" dy="753" grid="1" gridSize="10" guides="1" tooltips="1" connect="1" arrows="1" fold="1" page="1" pageScale="1" pageWidth="900" pageHeight="1600" math="0" shadow="0">
            <root>
                <mxCell id="0"/>
                <mxCell id="1" parent="0"/>
                <mxCell id="3" value="&lt;b&gt;Weather Inputs&lt;/b&gt;&lt;div&gt;(B, lat, lon, features, time)&lt;/div&gt;" style="rounded=0;whiteSpace=wrap;html=1;fillColor=#dae8fc;strokeColor=#6c8ebf;strokeWidth=2;" parent="1" vertex="1">
                    <mxGeometry x="230" y="205" width="150" height="60" as="geometry"/>
                </mxCell>
                <mxCell id="4" value="&lt;b&gt;Text Inputs&lt;/b&gt;&lt;div&gt;(B, n_tok)&lt;/div&gt;" style="rounded=0;whiteSpace=wrap;html=1;fillColor=#fff2cc;strokeColor=#d6b656;strokeWidth=2;" parent="1" vertex="1">
                    <mxGeometry x="470" y="385" width="120" height="60" as="geometry"/>
                </mxCell>
                <mxCell id="6" value="Fuyu MLM" style="text;html=1;align=center;verticalAlign=middle;whiteSpace=wrap;rounded=0;fontSize=22;fontStyle=1;labelBackgroundColor=#E6E6E6;" parent="1" vertex="1">
                    <mxGeometry x="360" y="130" width="130" height="30" as="geometry"/>
                </mxCell>
                <mxCell id="7" value="" style="rounded=0;whiteSpace=wrap;html=1;fillColor=#dae8fc;strokeColor=#6c8ebf;" parent="1" vertex="1">
                    <mxGeometry x="230" y="285" width="140" height="60" as="geometry"/>
                </mxCell>
                <mxCell id="8" value="" style="rounded=0;whiteSpace=wrap;html=1;fillColor=#dae8fc;strokeColor=#6c8ebf;" parent="1" vertex="1">
                    <mxGeometry x="240" y="295" width="140" height="60" as="geometry"/>
                </mxCell>
                <mxCell id="9" value="&lt;div&gt;(B, features, lat, lon)&lt;/div&gt;" style="rounded=0;whiteSpace=wrap;html=1;fillColor=#dae8fc;strokeColor=#6c8ebf;" parent="1" vertex="1">
                    <mxGeometry x="250" y="305" width="140" height="60" as="geometry"/>
                </mxCell>
                <mxCell id="10" value="time" style="text;html=1;align=center;verticalAlign=middle;whiteSpace=wrap;rounded=0;" parent="1" vertex="1">
                    <mxGeometry x="210" y="355" width="30" height="30" as="geometry"/>
                </mxCell>
                <mxCell id="11" value="" style="endArrow=classic;startArrow=classic;html=1;" parent="1" edge="1">
                    <mxGeometry width="50" height="50" relative="1" as="geometry">
                        <mxPoint x="220" y="345" as="sourcePoint"/>
                        <mxPoint x="250" y="375" as="targetPoint"/>
                    </mxGeometry>
                </mxCell>
                <mxCell id="13" value="" style="endArrow=classic;html=1;exitX=0.468;exitY=1.002;exitDx=0;exitDy=0;entryX=0.5;entryY=0;entryDx=0;entryDy=0;exitPerimeter=0;" parent="1" source="3" target="7" edge="1">
                    <mxGeometry width="50" height="50" relative="1" as="geometry">
                        <mxPoint x="440" y="435" as="sourcePoint"/>
                        <mxPoint x="490" y="385" as="targetPoint"/>
                    </mxGeometry>
                </mxCell>
                <mxCell id="14" value="&lt;font style=&quot;font-size: 9px;&quot;&gt;Rearrange&lt;/font&gt;" style="text;html=1;align=center;verticalAlign=middle;whiteSpace=wrap;rounded=0;" parent="1" vertex="1">
                    <mxGeometry x="300" y="265" width="60" height="20" as="geometry"/>
                </mxCell>
                <mxCell id="15" value="Vision Encoder" style="rhombus;whiteSpace=wrap;html=1;fillColor=#f8cecc;strokeColor=#b85450;" parent="1" vertex="1">
                    <mxGeometry x="270" y="385" width="80" height="80" as="geometry"/>
                </mxCell>
                <mxCell id="16" value="" style="endArrow=classic;html=1;entryX=0.5;entryY=0;entryDx=0;entryDy=0;" parent="1" target="15" edge="1">
                    <mxGeometry width="50" height="50" relative="1" as="geometry">
                        <mxPoint x="310" y="365" as="sourcePoint"/>
                        <mxPoint x="490" y="385" as="targetPoint"/>
                    </mxGeometry>
                </mxCell>
                <mxCell id="17" value="" style="rounded=0;whiteSpace=wrap;html=1;fillColor=#dae8fc;strokeColor=#6c8ebf;" parent="1" vertex="1">
                    <mxGeometry x="240" y="485" width="140" height="60" as="geometry"/>
                </mxCell>
                <mxCell id="29" value="" style="edgeStyle=none;html=1;exitX=0.5;exitY=1;exitDx=0;exitDy=0;entryX=0.5;entryY=0;entryDx=0;entryDy=0;" parent="1" source="15" target="17" edge="1">
                    <mxGeometry relative="1" as="geometry"/>
                </mxCell>
                <mxCell id="18" value="" style="rounded=0;whiteSpace=wrap;html=1;fillColor=#dae8fc;strokeColor=#6c8ebf;" parent="1" vertex="1">
                    <mxGeometry x="250" y="495" width="140" height="60" as="geometry"/>
                </mxCell>
                <mxCell id="31" value="" style="edgeStyle=none;html=1;" parent="1" source="19" target="30" edge="1">
                    <mxGeometry relative="1" as="geometry"/>
                </mxCell>
                <mxCell id="19" value="&lt;div&gt;(B, n&#39;_tok, embed_dim)&lt;/div&gt;" style="rounded=0;whiteSpace=wrap;html=1;fillColor=#dae8fc;strokeColor=#6c8ebf;" parent="1" vertex="1">
                    <mxGeometry x="260" y="505" width="140" height="60" as="geometry"/>
                </mxCell>
                <mxCell id="20" value="" style="endArrow=classic;startArrow=classic;html=1;" parent="1" edge="1">
                    <mxGeometry width="50" height="50" relative="1" as="geometry">
                        <mxPoint x="230" y="545" as="sourcePoint"/>
                        <mxPoint x="260" y="575" as="targetPoint"/>
                    </mxGeometry>
                </mxCell>
                <mxCell id="27" value="" style="edgeStyle=none;html=1;" parent="1" source="23" target="26" edge="1">
                    <mxGeometry relative="1" as="geometry"/>
                </mxCell>
                <mxCell id="23" value="Embedding" style="ellipse;whiteSpace=wrap;html=1;fillColor=#f8cecc;strokeColor=#b85450;" parent="1" vertex="1">
                    <mxGeometry x="470" y="505" width="120" height="50" as="geometry"/>
                </mxCell>
                <mxCell id="25" value="" style="endArrow=classic;html=1;exitX=0.5;exitY=1;exitDx=0;exitDy=0;" parent="1" source="4" target="23" edge="1">
                    <mxGeometry width="50" height="50" relative="1" as="geometry">
                        <mxPoint x="450" y="665" as="sourcePoint"/>
                        <mxPoint x="500" y="615" as="targetPoint"/>
                    </mxGeometry>
                </mxCell>
                <mxCell id="26" value="&lt;div&gt;(B, n_tok, embed_dim)&lt;/div&gt;" style="rounded=0;whiteSpace=wrap;html=1;fillColor=#fff2cc;strokeColor=#d6b656;" parent="1" vertex="1">
                    <mxGeometry x="460" y="585" width="140" height="50" as="geometry"/>
                </mxCell>
                <mxCell id="28" value="time" style="text;html=1;align=center;verticalAlign=middle;whiteSpace=wrap;rounded=0;" parent="1" vertex="1">
                    <mxGeometry x="220" y="555" width="30" height="30" as="geometry"/>
                </mxCell>
                <mxCell id="30" value="&lt;div&gt;(B, n&#39;_tok * time, embed_dim)&lt;/div&gt;" style="rounded=0;whiteSpace=wrap;html=1;fillColor=#dae8fc;strokeColor=#6c8ebf;" parent="1" vertex="1">
                    <mxGeometry x="242.5" y="585" width="175" height="50" as="geometry"/>
                </mxCell>
                <mxCell id="32" value="&lt;font style=&quot;font-size: 9px;&quot;&gt;Cat&lt;/font&gt;" style="text;html=1;align=center;verticalAlign=middle;whiteSpace=wrap;rounded=0;" parent="1" vertex="1">
                    <mxGeometry x="330" y="565" width="40" height="20" as="geometry"/>
                </mxCell>
                <mxCell id="38" value="" style="edgeStyle=none;html=1;dashed=1;" parent="1" source="33" target="fZResalVlZnlM3KxgCgS-67" edge="1">
                    <mxGeometry relative="1" as="geometry">
                        <mxPoint x="536" y="779" as="targetPoint"/>
                    </mxGeometry>
                </mxCell>
                <mxCell id="33" value="&lt;b&gt;Inputs embeddings&lt;/b&gt;&lt;div&gt;(B, n&#39;_tok * time + n_tok, embed_dim)&lt;/div&gt;" style="rounded=0;whiteSpace=wrap;html=1;fillColor=#d5e8d4;strokeColor=#82b366;" parent="1" vertex="1">
                    <mxGeometry x="330" y="685" width="220" height="60" as="geometry"/>
                </mxCell>
                <mxCell id="34" value="" style="endArrow=classic;html=1;exitX=0.5;exitY=1;exitDx=0;exitDy=0;" parent="1" source="30" target="33" edge="1">
                    <mxGeometry width="50" height="50" relative="1" as="geometry">
                        <mxPoint x="400" y="485" as="sourcePoint"/>
                        <mxPoint x="450" y="435" as="targetPoint"/>
                    </mxGeometry>
                </mxCell>
                <mxCell id="35" value="" style="endArrow=classic;html=1;exitX=0.5;exitY=1;exitDx=0;exitDy=0;entryX=0.75;entryY=0;entryDx=0;entryDy=0;" parent="1" source="26" target="33" edge="1">
                    <mxGeometry width="50" height="50" relative="1" as="geometry">
                        <mxPoint x="400" y="485" as="sourcePoint"/>
                        <mxPoint x="450" y="435" as="targetPoint"/>
                    </mxGeometry>
                </mxCell>
                <mxCell id="36" value="&lt;font style=&quot;font-size: 9px;&quot;&gt;Cat&lt;/font&gt;" style="text;html=1;align=center;verticalAlign=middle;whiteSpace=wrap;rounded=0;" parent="1" vertex="1">
                    <mxGeometry x="417.5" y="665" width="40" height="20" as="geometry"/>
                </mxCell>
                <mxCell id="40" value="" style="edgeStyle=none;html=1;dashed=1;" parent="1" source="fZResalVlZnlM3KxgCgS-67" target="39" edge="1">
                    <mxGeometry relative="1" as="geometry">
                        <mxPoint x="535.3846153846154" y="810.3846153846152" as="sourcePoint"/>
                    </mxGeometry>
                </mxCell>
                <mxCell id="42" value="" style="edgeStyle=none;html=1;" parent="1" source="39" target="41" edge="1">
                    <mxGeometry relative="1" as="geometry"/>
                </mxCell>
                <mxCell id="39" value="&lt;div&gt;(B, n&#39;_tok * time + n_tok, embed_dim)&lt;/div&gt;" style="rounded=0;whiteSpace=wrap;html=1;fillColor=#d5e8d4;strokeColor=#82b366;" parent="1" vertex="1">
                    <mxGeometry x="330" y="845" width="220" height="50" as="geometry"/>
                </mxCell>
                <mxCell id="47" value="" style="edgeStyle=none;html=1;entryX=0.5;entryY=0;entryDx=0;entryDy=0;dashed=1;" parent="1" source="41" target="44" edge="1">
                    <mxGeometry relative="1" as="geometry"/>
                </mxCell>
                <mxCell id="49" value="" style="edgeStyle=none;html=1;" parent="1" source="41" target="48" edge="1">
                    <mxGeometry relative="1" as="geometry"/>
                </mxCell>
                <mxCell id="41" value="&lt;div&gt;(B,&amp;nbsp;&lt;/div&gt;&lt;div&gt;max(n&#39;_tok * time + n_tok, context_len), embed_dim)&lt;/div&gt;" style="rounded=0;whiteSpace=wrap;html=1;fillColor=#d5e8d4;strokeColor=#82b366;" parent="1" vertex="1">
                    <mxGeometry x="330" y="915" width="220" height="50" as="geometry"/>
                </mxCell>
                <mxCell id="46" value="" style="edgeStyle=none;html=1;dashed=1;" parent="1" source="44" target="45" edge="1">
                    <mxGeometry relative="1" as="geometry"/>
                </mxCell>
                <mxCell id="44" value="Positional&lt;div&gt;Embedding&lt;/div&gt;" style="ellipse;whiteSpace=wrap;html=1;fillColor=#f8cecc;strokeColor=#b85450;dashed=1;" parent="1" vertex="1">
                    <mxGeometry x="512.5" y="995" width="120" height="50" as="geometry"/>
                </mxCell>
                <mxCell id="50" value="" style="edgeStyle=none;html=1;dashed=1;" parent="1" source="45" target="48" edge="1">
                    <mxGeometry relative="1" as="geometry"/>
                </mxCell>
                <mxCell id="45" value="&lt;div&gt;(1,&amp;nbsp;&lt;/div&gt;&lt;div&gt;max(n&#39;_tok * time + n_tok, context_len), embed_dim)&lt;/div&gt;" style="rounded=0;whiteSpace=wrap;html=1;fillColor=#d5e8d4;strokeColor=#82b366;dashed=1;" parent="1" vertex="1">
                    <mxGeometry x="460" y="1065" width="220" height="50" as="geometry"/>
                </mxCell>
                <mxCell id="56" value="" style="edgeStyle=none;html=1;" parent="1" source="48" target="55" edge="1">
                    <mxGeometry relative="1" as="geometry"/>
                </mxCell>
                <mxCell id="48" value="&lt;div&gt;(B,&amp;nbsp;&lt;/div&gt;&lt;div&gt;max(n&#39;_tok * time + n_tok, context_len), embed_dim)&lt;/div&gt;" style="rounded=0;whiteSpace=wrap;html=1;fillColor=#d5e8d4;strokeColor=#82b366;" parent="1" vertex="1">
                    <mxGeometry x="330" y="1145" width="220" height="50" as="geometry"/>
                </mxCell>
                <mxCell id="51" value="" style="endArrow=classic;html=1;exitX=0.5;exitY=1;exitDx=0;exitDy=0;" parent="1" source="33" edge="1">
                    <mxGeometry width="50" height="50" relative="1" as="geometry">
                        <mxPoint x="460" y="955" as="sourcePoint"/>
                        <mxPoint x="440" y="845" as="targetPoint"/>
                    </mxGeometry>
                </mxCell>
                <mxCell id="52" value="&lt;font style=&quot;font-size: 9px;&quot;&gt;Identity&lt;/font&gt;" style="text;html=1;align=center;verticalAlign=middle;whiteSpace=wrap;rounded=0;" parent="1" vertex="1">
                    <mxGeometry x="400" y="775" width="40" height="20" as="geometry"/>
                </mxCell>
                <mxCell id="54" value="&lt;font style=&quot;font-size: 9px;&quot;&gt;Add&lt;/font&gt;" style="text;html=1;align=center;verticalAlign=middle;whiteSpace=wrap;rounded=0;" parent="1" vertex="1">
                    <mxGeometry x="444" y="1125" width="40" height="20" as="geometry"/>
                </mxCell>
                <mxCell id="60" value="" style="edgeStyle=none;html=1;" parent="1" source="55" target="59" edge="1">
                    <mxGeometry relative="1" as="geometry"/>
                </mxCell>
                <mxCell id="55" value="LLM" style="rhombus;whiteSpace=wrap;html=1;fillColor=#f8cecc;strokeColor=#b85450;" parent="1" vertex="1">
                    <mxGeometry x="400" y="1215" width="80" height="80" as="geometry"/>
                </mxCell>
                <mxCell id="57" value="" style="edgeStyle=elbowEdgeStyle;elbow=horizontal;endArrow=classic;html=1;curved=0;rounded=0;endSize=8;startSize=8;exitX=0;exitY=0.5;exitDx=0;exitDy=0;entryX=0;entryY=0.5;entryDx=0;entryDy=0;dashed=1;" parent="1" source="41" target="55" edge="1">
                    <mxGeometry width="50" height="50" relative="1" as="geometry">
                        <mxPoint x="260" y="1085" as="sourcePoint"/>
                        <mxPoint x="310" y="1035" as="targetPoint"/>
                        <Array as="points">
                            <mxPoint x="300" y="1095"/>
                        </Array>
                    </mxGeometry>
                </mxCell>
                <mxCell id="58" value="&lt;font style=&quot;font-size: 9px;&quot;&gt;Inject&lt;/font&gt;&lt;div&gt;&lt;font style=&quot;font-size: 9px;&quot;&gt;at each&lt;/font&gt;&lt;/div&gt;&lt;div&gt;&lt;font style=&quot;font-size: 9px;&quot;&gt;stage&lt;/font&gt;&lt;/div&gt;" style="text;html=1;align=center;verticalAlign=middle;whiteSpace=wrap;rounded=0;" parent="1" vertex="1">
                    <mxGeometry x="260" y="1065" width="40" height="20" as="geometry"/>
                </mxCell>
                <mxCell id="62" value="" style="edgeStyle=none;html=1;" parent="1" source="59" target="61" edge="1">
                    <mxGeometry relative="1" as="geometry"/>
                </mxCell>
                <mxCell id="59" value="&lt;div&gt;&lt;span style=&quot;background-color: transparent;&quot;&gt;(B,&amp;nbsp;&lt;/span&gt;&lt;br&gt;&lt;/div&gt;&lt;div&gt;max(n&#39;_tok * time + n_tok, context_len), vocab_size)&lt;/div&gt;" style="rounded=0;whiteSpace=wrap;html=1;fillColor=#ffe6cc;strokeColor=#d79b00;" parent="1" vertex="1">
                    <mxGeometry x="330" y="1315" width="220" height="60" as="geometry"/>
                </mxCell>
                <mxCell id="61" value="&lt;div&gt;&lt;b&gt;Logits&lt;/b&gt;&lt;/div&gt;&lt;div&gt;(B,&amp;nbsp;&lt;span style=&quot;background-color: transparent;&quot;&gt;n_tok, vocab_size)&lt;/span&gt;&lt;/div&gt;" style="rounded=0;whiteSpace=wrap;html=1;fillColor=#ffe6cc;strokeColor=#d79b00;strokeWidth=2;" parent="1" vertex="1">
                    <mxGeometry x="330" y="1395" width="220" height="50" as="geometry"/>
                </mxCell>
                <mxCell id="65" value="&lt;font style=&quot;font-size: 9px;&quot;&gt;Slice&lt;/font&gt;" style="text;html=1;align=center;verticalAlign=middle;whiteSpace=wrap;rounded=0;" parent="1" vertex="1">
                    <mxGeometry x="440" y="1375" width="40" height="20" as="geometry"/>
                </mxCell>
                <mxCell id="66" value="&lt;font style=&quot;font-size: 9px;&quot;&gt;Slice&lt;/font&gt;" style="text;html=1;align=center;verticalAlign=middle;whiteSpace=wrap;rounded=0;" parent="1" vertex="1">
                    <mxGeometry x="440" y="895" width="40" height="20" as="geometry"/>
                </mxCell>
                <mxCell id="fZResalVlZnlM3KxgCgS-67" value="Layer&lt;div&gt;Norm&lt;/div&gt;" style="ellipse;whiteSpace=wrap;html=1;fillColor=#f8cecc;strokeColor=#b85450;dashed=1;" parent="1" vertex="1">
                    <mxGeometry x="512.5" y="765" width="70" height="55" as="geometry"/>
                </mxCell>
                <mxCell id="fZResalVlZnlM3KxgCgS-68" value="" style="rounded=0;whiteSpace=wrap;html=1;fillColor=none;" parent="1" vertex="1">
                    <mxGeometry x="45" y="1170" width="200" height="230" as="geometry"/>
                </mxCell>
                <mxCell id="fZResalVlZnlM3KxgCgS-69" value="&lt;font style=&quot;font-size: 17px;&quot;&gt;&lt;b&gt;Legend&lt;/b&gt;&lt;/font&gt;" style="text;html=1;align=center;verticalAlign=middle;whiteSpace=wrap;rounded=0;" parent="1" vertex="1">
                    <mxGeometry x="115" y="1180" width="60" height="30" as="geometry"/>
                </mxCell>
                <mxCell id="fZResalVlZnlM3KxgCgS-70" value="" style="rounded=0;whiteSpace=wrap;html=1;" parent="1" vertex="1">
                    <mxGeometry x="55" y="1220" width="60" height="30" as="geometry"/>
                </mxCell>
                <mxCell id="fZResalVlZnlM3KxgCgS-71" value="Tensors" style="text;html=1;align=center;verticalAlign=middle;whiteSpace=wrap;rounded=0;" parent="1" vertex="1">
                    <mxGeometry x="115" y="1220" width="60" height="30" as="geometry"/>
                </mxCell>
                <mxCell id="fZResalVlZnlM3KxgCgS-72" value="" style="rhombus;whiteSpace=wrap;html=1;fillColor=#f8cecc;strokeColor=#b85450;" parent="1" vertex="1">
                    <mxGeometry x="60" y="1260" width="50" height="50" as="geometry"/>
                </mxCell>
                <mxCell id="fZResalVlZnlM3KxgCgS-74" value="Neural Networks" style="text;html=1;align=center;verticalAlign=middle;whiteSpace=wrap;rounded=0;" parent="1" vertex="1">
                    <mxGeometry x="120" y="1270" width="100" height="30" as="geometry"/>
                </mxCell>
                <mxCell id="fZResalVlZnlM3KxgCgS-75" value="" style="ellipse;whiteSpace=wrap;html=1;aspect=fixed;fillColor=#f8cecc;strokeColor=#b85450;" parent="1" vertex="1">
                    <mxGeometry x="67.5" y="1317.5" width="35" height="35" as="geometry"/>
                </mxCell>
                <mxCell id="fZResalVlZnlM3KxgCgS-76" value="Trainable layers" style="text;html=1;align=center;verticalAlign=middle;whiteSpace=wrap;rounded=0;" parent="1" vertex="1">
                    <mxGeometry x="120" y="1320" width="100" height="30" as="geometry"/>
                </mxCell>
                <mxCell id="fZResalVlZnlM3KxgCgS-77" value="" style="endArrow=classic;html=1;dashed=1;" parent="1" edge="1">
                    <mxGeometry width="50" height="50" relative="1" as="geometry">
                        <mxPoint x="65" y="1376" as="sourcePoint"/>
                        <mxPoint x="105" y="1376" as="targetPoint"/>
                    </mxGeometry>
                </mxCell>
                <mxCell id="fZResalVlZnlM3KxgCgS-78" value="Optional operation" style="text;html=1;align=center;verticalAlign=middle;whiteSpace=wrap;rounded=0;" parent="1" vertex="1">
                    <mxGeometry x="120" y="1360" width="105" height="30" as="geometry"/>
                </mxCell>
            </root>
        </mxGraphModel>
    </diagram>
    <diagram id="VOcWOpmu85paYqIC9H8d" name="ResNet50MLM">
        <mxGraphModel dx="388" dy="753" grid="1" gridSize="10" guides="1" tooltips="1" connect="1" arrows="1" fold="1" page="1" pageScale="1" pageWidth="827" pageHeight="1169" math="0" shadow="0">
            <root>
                <mxCell id="0"/>
                <mxCell id="1" parent="0"/>
                <mxCell id="rYx3gDcJODvSpZovMFh1-2" value="" style="edgeStyle=none;html=1;" parent="1" source="F48xH0BiuQwHIjJcF4aA-1" target="rYx3gDcJODvSpZovMFh1-1" edge="1">
                    <mxGeometry relative="1" as="geometry"/>
                </mxCell>
                <mxCell id="F48xH0BiuQwHIjJcF4aA-1" value="&lt;b&gt;Weather Inputs&lt;/b&gt;&lt;div&gt;(B, features, lat, lon)&lt;/div&gt;" style="rounded=0;whiteSpace=wrap;html=1;fillColor=#dae8fc;strokeColor=#6c8ebf;strokeWidth=2;" parent="1" vertex="1">
                    <mxGeometry x="318.5" y="280" width="150" height="60" as="geometry"/>
                </mxCell>
                <mxCell id="F48xH0BiuQwHIjJcF4aA-2" value="ResNet50MLM Vision Encoder" style="text;html=1;align=center;verticalAlign=middle;whiteSpace=wrap;rounded=0;fontSize=22;fontStyle=1;labelBackgroundColor=#E6E6E6;" parent="1" vertex="1">
                    <mxGeometry x="240" y="230" width="320" height="30" as="geometry"/>
                </mxCell>
                <mxCell id="rYx3gDcJODvSpZovMFh1-5" value="" style="edgeStyle=none;html=1;" parent="1" source="F48xH0BiuQwHIjJcF4aA-5" target="rYx3gDcJODvSpZovMFh1-4" edge="1">
                    <mxGeometry relative="1" as="geometry"/>
                </mxCell>
                <mxCell id="F48xH0BiuQwHIjJcF4aA-5" value="&lt;div&gt;(B, out_channels, 2, 2)&lt;/div&gt;" style="rounded=0;whiteSpace=wrap;html=1;fillColor=#dae8fc;strokeColor=#6c8ebf;" parent="1" vertex="1">
                    <mxGeometry x="323.5" y="460" width="140" height="40" as="geometry"/>
                </mxCell>
                <mxCell id="rYx3gDcJODvSpZovMFh1-3" value="" style="edgeStyle=none;html=1;" parent="1" source="rYx3gDcJODvSpZovMFh1-1" target="F48xH0BiuQwHIjJcF4aA-5" edge="1">
                    <mxGeometry relative="1" as="geometry"/>
                </mxCell>
                <mxCell id="rYx3gDcJODvSpZovMFh1-1" value="ResNet50 Encoder" style="rhombus;whiteSpace=wrap;html=1;fillColor=#f8cecc;strokeColor=#b85450;" parent="1" vertex="1">
                    <mxGeometry x="353.5" y="360" width="80" height="80" as="geometry"/>
                </mxCell>
                <mxCell id="DtOjz9_ZFJN8tTZscV0e-5" value="" style="edgeStyle=none;html=1;dashed=1;dashPattern=8 8;" parent="1" source="rYx3gDcJODvSpZovMFh1-4" target="DtOjz9_ZFJN8tTZscV0e-4" edge="1">
                    <mxGeometry relative="1" as="geometry"/>
                </mxCell>
                <mxCell id="DtOjz9_ZFJN8tTZscV0e-6" value="" style="edgeStyle=none;html=1;dashed=1;dashPattern=8 8;" parent="1" source="rYx3gDcJODvSpZovMFh1-4" target="DtOjz9_ZFJN8tTZscV0e-3" edge="1">
                    <mxGeometry relative="1" as="geometry"/>
                </mxCell>
                <mxCell id="rYx3gDcJODvSpZovMFh1-4" value="&lt;div&gt;(B, out_channels)&lt;/div&gt;" style="rounded=0;whiteSpace=wrap;html=1;fillColor=#dae8fc;strokeColor=#6c8ebf;" parent="1" vertex="1">
                    <mxGeometry x="323.5" y="520" width="140" height="40" as="geometry"/>
                </mxCell>
                <mxCell id="DtOjz9_ZFJN8tTZscV0e-1" value="&lt;font style=&quot;font-size: 9px;&quot;&gt;AveragePooling&lt;/font&gt;" style="text;html=1;align=center;verticalAlign=middle;whiteSpace=wrap;rounded=0;" parent="1" vertex="1">
                    <mxGeometry x="417" y="500" width="40" height="20" as="geometry"/>
                </mxCell>
                <mxCell id="DtOjz9_ZFJN8tTZscV0e-13" value="" style="edgeStyle=none;html=1;" parent="1" source="DtOjz9_ZFJN8tTZscV0e-2" target="DtOjz9_ZFJN8tTZscV0e-7" edge="1">
                    <mxGeometry relative="1" as="geometry"/>
                </mxCell>
                <mxCell id="DtOjz9_ZFJN8tTZscV0e-2" value="&lt;div&gt;(B, n&#39;_tok * embed_dim)&lt;/div&gt;" style="rounded=0;whiteSpace=wrap;html=1;fillColor=#dae8fc;strokeColor=#6c8ebf;" parent="1" vertex="1">
                    <mxGeometry x="328.5" y="700" width="140" height="40" as="geometry"/>
                </mxCell>
                <mxCell id="DtOjz9_ZFJN8tTZscV0e-8" value="" style="edgeStyle=none;html=1;" parent="1" source="DtOjz9_ZFJN8tTZscV0e-3" target="DtOjz9_ZFJN8tTZscV0e-2" edge="1">
                    <mxGeometry relative="1" as="geometry"/>
                </mxCell>
                <mxCell id="DtOjz9_ZFJN8tTZscV0e-3" value="Linear" style="rhombus;whiteSpace=wrap;html=1;fillColor=#f8cecc;strokeColor=#b85450;" parent="1" vertex="1">
                    <mxGeometry x="287" y="590" width="80" height="80" as="geometry"/>
                </mxCell>
                <mxCell id="DtOjz9_ZFJN8tTZscV0e-9" value="" style="edgeStyle=none;html=1;" parent="1" source="DtOjz9_ZFJN8tTZscV0e-4" target="DtOjz9_ZFJN8tTZscV0e-2" edge="1">
                    <mxGeometry relative="1" as="geometry"/>
                </mxCell>
                <mxCell id="DtOjz9_ZFJN8tTZscV0e-4" value="MLP" style="rhombus;whiteSpace=wrap;html=1;fillColor=#f8cecc;strokeColor=#b85450;" parent="1" vertex="1">
                    <mxGeometry x="427" y="590" width="80" height="80" as="geometry"/>
                </mxCell>
                <mxCell id="DtOjz9_ZFJN8tTZscV0e-18" value="" style="edgeStyle=none;html=1;" parent="1" source="DtOjz9_ZFJN8tTZscV0e-7" target="DtOjz9_ZFJN8tTZscV0e-16" edge="1">
                    <mxGeometry relative="1" as="geometry"/>
                </mxCell>
                <mxCell id="DtOjz9_ZFJN8tTZscV0e-19" style="edgeStyle=none;html=1;dashed=1;" parent="1" source="DtOjz9_ZFJN8tTZscV0e-7" target="dal9_SwwfN0fCuHmmjUH-1" edge="1">
                    <mxGeometry relative="1" as="geometry">
                        <mxPoint x="448.4545454545454" y="810" as="targetPoint"/>
                    </mxGeometry>
                </mxCell>
                <mxCell id="DtOjz9_ZFJN8tTZscV0e-7" value="&lt;div&gt;(B, n&#39;_tok, embed_dim)&lt;/div&gt;" style="rounded=0;whiteSpace=wrap;html=1;fillColor=#dae8fc;strokeColor=#6c8ebf;" parent="1" vertex="1">
                    <mxGeometry x="328.5" y="760" width="140" height="30" as="geometry"/>
                </mxCell>
                <mxCell id="DtOjz9_ZFJN8tTZscV0e-10" value="&lt;font style=&quot;font-size: 9px;&quot;&gt;Settings&lt;/font&gt;&lt;div&gt;&lt;font style=&quot;font-size: 9px;&quot;&gt;Choice&lt;/font&gt;&lt;/div&gt;" style="text;html=1;align=center;verticalAlign=middle;whiteSpace=wrap;rounded=0;" parent="1" vertex="1">
                    <mxGeometry x="374" y="565" width="40" height="20" as="geometry"/>
                </mxCell>
                <mxCell id="DtOjz9_ZFJN8tTZscV0e-14" value="&lt;font style=&quot;font-size: 9px;&quot;&gt;Reshape&lt;/font&gt;" style="text;html=1;align=center;verticalAlign=middle;whiteSpace=wrap;rounded=0;" parent="1" vertex="1">
                    <mxGeometry x="407" y="740" width="40" height="20" as="geometry"/>
                </mxCell>
                <mxCell id="DtOjz9_ZFJN8tTZscV0e-16" value="&lt;div&gt;(B, n&#39;_tok, embed_dim)&lt;/div&gt;" style="rounded=0;whiteSpace=wrap;html=1;fillColor=#dae8fc;strokeColor=#6c8ebf;strokeWidth=2;" parent="1" vertex="1">
                    <mxGeometry x="328.5" y="900" width="140" height="40" as="geometry"/>
                </mxCell>
                <mxCell id="DtOjz9_ZFJN8tTZscV0e-20" style="edgeStyle=none;html=1;dashed=1;" parent="1" source="dal9_SwwfN0fCuHmmjUH-1" target="DtOjz9_ZFJN8tTZscV0e-16" edge="1">
                    <mxGeometry relative="1" as="geometry">
                        <mxPoint x="459.55555555555554" y="850" as="sourcePoint"/>
                    </mxGeometry>
                </mxCell>
                <mxCell id="DtOjz9_ZFJN8tTZscV0e-21" value="&lt;font style=&quot;font-size: 9px;&quot;&gt;Add&lt;/font&gt;" style="text;html=1;align=center;verticalAlign=middle;whiteSpace=wrap;rounded=0;" parent="1" vertex="1">
                    <mxGeometry x="393.5" y="870" width="40" height="20" as="geometry"/>
                </mxCell>
                <mxCell id="dal9_SwwfN0fCuHmmjUH-1" value="&lt;span style=&quot;color: rgb(0, 0, 0);&quot;&gt;Positional&lt;/span&gt;&lt;div style=&quot;color: rgb(0, 0, 0);&quot;&gt;Embedding&lt;/div&gt;" style="ellipse;whiteSpace=wrap;html=1;fillColor=#f8cecc;strokeColor=#b85450;" parent="1" vertex="1">
                    <mxGeometry x="427" y="820" width="120" height="50" as="geometry"/>
                </mxCell>
                <mxCell id="uHUR87mdAJU_3pvnbsBC-1" value="" style="rounded=0;whiteSpace=wrap;html=1;fillColor=none;" parent="1" vertex="1">
                    <mxGeometry x="40" y="890" width="200" height="230" as="geometry"/>
                </mxCell>
                <mxCell id="uHUR87mdAJU_3pvnbsBC-2" value="&lt;font style=&quot;font-size: 17px;&quot;&gt;&lt;b&gt;Legend&lt;/b&gt;&lt;/font&gt;" style="text;html=1;align=center;verticalAlign=middle;whiteSpace=wrap;rounded=0;" parent="1" vertex="1">
                    <mxGeometry x="110" y="900" width="60" height="30" as="geometry"/>
                </mxCell>
                <mxCell id="uHUR87mdAJU_3pvnbsBC-3" value="" style="rounded=0;whiteSpace=wrap;html=1;" parent="1" vertex="1">
                    <mxGeometry x="50" y="940" width="60" height="30" as="geometry"/>
                </mxCell>
                <mxCell id="uHUR87mdAJU_3pvnbsBC-4" value="Tensors" style="text;html=1;align=center;verticalAlign=middle;whiteSpace=wrap;rounded=0;" parent="1" vertex="1">
                    <mxGeometry x="110" y="940" width="60" height="30" as="geometry"/>
                </mxCell>
                <mxCell id="uHUR87mdAJU_3pvnbsBC-5" value="" style="rhombus;whiteSpace=wrap;html=1;fillColor=#f8cecc;strokeColor=#b85450;" parent="1" vertex="1">
                    <mxGeometry x="55" y="980" width="50" height="50" as="geometry"/>
                </mxCell>
                <mxCell id="uHUR87mdAJU_3pvnbsBC-6" value="Neural Networks" style="text;html=1;align=center;verticalAlign=middle;whiteSpace=wrap;rounded=0;" parent="1" vertex="1">
                    <mxGeometry x="115" y="990" width="100" height="30" as="geometry"/>
                </mxCell>
                <mxCell id="uHUR87mdAJU_3pvnbsBC-7" value="" style="ellipse;whiteSpace=wrap;html=1;aspect=fixed;fillColor=#f8cecc;strokeColor=#b85450;" parent="1" vertex="1">
                    <mxGeometry x="62.5" y="1037.5" width="35" height="35" as="geometry"/>
                </mxCell>
                <mxCell id="uHUR87mdAJU_3pvnbsBC-8" value="Trainable layers" style="text;html=1;align=center;verticalAlign=middle;whiteSpace=wrap;rounded=0;" parent="1" vertex="1">
                    <mxGeometry x="115" y="1040" width="100" height="30" as="geometry"/>
                </mxCell>
                <mxCell id="uHUR87mdAJU_3pvnbsBC-9" value="" style="endArrow=classic;html=1;dashed=1;" parent="1" edge="1">
                    <mxGeometry width="50" height="50" relative="1" as="geometry">
                        <mxPoint x="60" y="1096" as="sourcePoint"/>
                        <mxPoint x="100" y="1096" as="targetPoint"/>
                    </mxGeometry>
                </mxCell>
                <mxCell id="uHUR87mdAJU_3pvnbsBC-10" value="Optional operation" style="text;html=1;align=center;verticalAlign=middle;whiteSpace=wrap;rounded=0;" parent="1" vertex="1">
                    <mxGeometry x="115" y="1080" width="105" height="30" as="geometry"/>
                </mxCell>
            </root>
        </mxGraphModel>
    </diagram>
    <diagram id="LUVT4kk_8rQNh-eoiMJ4" name="WeatherProjector">
        <mxGraphModel dx="323" dy="628" grid="1" gridSize="10" guides="1" tooltips="1" connect="1" arrows="1" fold="1" page="1" pageScale="1" pageWidth="827" pageHeight="1169" math="0" shadow="0">
            <root>
                <mxCell id="0"/>
                <mxCell id="1" parent="0"/>
                <mxCell id="uNjDJuzXT7Nde9NF2Yx6-4" value="" style="edgeStyle=none;html=1;" edge="1" parent="1" source="Afk0jTazDgfSHef8bxK3-1" target="uNjDJuzXT7Nde9NF2Yx6-3">
                    <mxGeometry relative="1" as="geometry"/>
                </mxCell>
                <mxCell id="Afk0jTazDgfSHef8bxK3-1" value="&lt;b&gt;Weather Inputs&lt;/b&gt;&lt;div&gt;(B, features, lat, lon)&lt;/div&gt;" style="rounded=0;whiteSpace=wrap;html=1;fillColor=#dae8fc;strokeColor=#6c8ebf;strokeWidth=2;" parent="1" vertex="1">
                    <mxGeometry x="395" y="290" width="150" height="60" as="geometry"/>
                </mxCell>
                <mxCell id="Afk0jTazDgfSHef8bxK3-2" value="WeatherProjector Vision Encoder" style="text;html=1;align=center;verticalAlign=middle;whiteSpace=wrap;rounded=0;fontSize=22;fontStyle=1;labelBackgroundColor=#E6E6E6;" parent="1" vertex="1">
                    <mxGeometry x="280" y="230" width="380" height="30" as="geometry"/>
                </mxCell>
                <mxCell id="uNjDJuzXT7Nde9NF2Yx6-1" value="&lt;div&gt;(B,&amp;nbsp;&lt;/div&gt;&lt;div&gt;&lt;span style=&quot;color: rgb(0, 0, 0); background-color: transparent;&quot;&gt;num_patches_h * num_patches_w&lt;/span&gt;&lt;span style=&quot;background-color: transparent;&quot;&gt;,&amp;nbsp;&lt;/span&gt;&lt;/div&gt;&lt;div&gt;&lt;span style=&quot;background-color: transparent;&quot;&gt;embed_dim)&lt;/span&gt;&lt;/div&gt;" style="rounded=0;whiteSpace=wrap;html=1;fillColor=#dae8fc;strokeColor=#6c8ebf;strokeWidth=2;" vertex="1" parent="1">
                    <mxGeometry x="372.5" y="630" width="195" height="60" as="geometry"/>
                </mxCell>
                <mxCell id="kh02421XVEJZk3540JJe-3" value="" style="edgeStyle=none;html=1;" edge="1" parent="1" source="uNjDJuzXT7Nde9NF2Yx6-2" target="kh02421XVEJZk3540JJe-1">
                    <mxGeometry relative="1" as="geometry"/>
                </mxCell>
                <mxCell id="uNjDJuzXT7Nde9NF2Yx6-2" value="&lt;div&gt;(B,&amp;nbsp;&lt;/div&gt;&lt;div&gt;num_patches_h * num_patches_w,&amp;nbsp;&lt;/div&gt;&lt;div&gt;patch_size_h * patch_size_w * features)&lt;/div&gt;" style="rounded=0;whiteSpace=wrap;html=1;fillColor=#dae8fc;strokeColor=#6c8ebf;strokeWidth=1;" vertex="1" parent="1">
                    <mxGeometry x="357.5" y="450" width="225" height="60" as="geometry"/>
                </mxCell>
                <mxCell id="UBnpS0wT4pssv67OwHms-2" value="" style="edgeStyle=none;html=1;" edge="1" parent="1" source="uNjDJuzXT7Nde9NF2Yx6-3" target="uNjDJuzXT7Nde9NF2Yx6-2">
                    <mxGeometry relative="1" as="geometry"/>
                </mxCell>
                <mxCell id="uNjDJuzXT7Nde9NF2Yx6-3" value="&lt;div&gt;(B, features, h, w)&lt;/div&gt;" style="rounded=0;whiteSpace=wrap;html=1;fillColor=#dae8fc;strokeColor=#6c8ebf;strokeWidth=1;" vertex="1" parent="1">
                    <mxGeometry x="395" y="370" width="150" height="60" as="geometry"/>
                </mxCell>
                <mxCell id="UBnpS0wT4pssv67OwHms-1" value="&lt;font style=&quot;font-size: 9px;&quot;&gt;Padding&lt;/font&gt;" style="text;html=1;align=center;verticalAlign=middle;whiteSpace=wrap;rounded=0;" vertex="1" parent="1">
                    <mxGeometry x="470" y="350" width="55" height="20" as="geometry"/>
                </mxCell>
                <mxCell id="UBnpS0wT4pssv67OwHms-3" value="&lt;font style=&quot;font-size: 9px;&quot;&gt;Rearrange&lt;/font&gt;" style="text;html=1;align=center;verticalAlign=middle;whiteSpace=wrap;rounded=0;" vertex="1" parent="1">
                    <mxGeometry x="470" y="430" width="55" height="20" as="geometry"/>
                </mxCell>
                <mxCell id="kh02421XVEJZk3540JJe-4" value="" style="edgeStyle=none;html=1;" edge="1" parent="1" source="kh02421XVEJZk3540JJe-1" target="uNjDJuzXT7Nde9NF2Yx6-1">
                    <mxGeometry relative="1" as="geometry"/>
                </mxCell>
                <mxCell id="kh02421XVEJZk3540JJe-1" value="Linear" style="rhombus;whiteSpace=wrap;html=1;fillColor=#f8cecc;strokeColor=#b85450;" vertex="1" parent="1">
                    <mxGeometry x="430" y="530" width="80" height="80" as="geometry"/>
                </mxCell>
            </root>
        </mxGraphModel>
    </diagram>
    <diagram id="Kw3DvYpJ674DBGYFl0TX" name="Page-4">
        <mxGraphModel dx="496" dy="537" grid="1" gridSize="10" guides="1" tooltips="1" connect="1" arrows="1" fold="1" page="1" pageScale="1" pageWidth="827" pageHeight="1169" math="0" shadow="0">
            <root>
                <mxCell id="0"/>
                <mxCell id="1" parent="0"/>
                <mxCell id="e5pYLBDivyG6jO9Fa9wx-3" value="" style="edgeStyle=none;html=1;" edge="1" parent="1" source="e5pYLBDivyG6jO9Fa9wx-1" target="e5pYLBDivyG6jO9Fa9wx-2">
                    <mxGeometry relative="1" as="geometry"/>
                </mxCell>
                <mxCell id="e5pYLBDivyG6jO9Fa9wx-1" value="coucou" style="whiteSpace=wrap;html=1;aspect=fixed;fillColor=#dae8fc;strokeColor=#6c8ebf;" vertex="1" parent="1">
                    <mxGeometry x="340" y="240" width="80" height="80" as="geometry"/>
                </mxCell>
                <mxCell id="e5pYLBDivyG6jO9Fa9wx-2" value="" style="triangle;whiteSpace=wrap;html=1;" vertex="1" parent="1">
                    <mxGeometry x="230" y="240" width="60" height="80" as="geometry"/>
                </mxCell>
            </root>
        </mxGraphModel>
    </diagram>
</mxfile>